<svg width="151" height="40" viewBox="0 0 151 40" fill="none" xmlns="http://www.w3.org/2000/svg">
<path d="M44.0532 12.8687H47.7253V27.7258H44.0532V12.8687ZM49.1895 22.1373C49.1895 18.4573 51.4774 16.2516 54.9092 16.2516C58.341 16.2516 60.6289 18.4573 60.6289 22.1373C60.6289 25.8173 58.4211 28.0458 54.9092 28.0458C51.3973 28.0458 49.1895 25.8973 49.1895 22.1373ZM56.9912 22.1373C56.9912 20.1144 56.2019 18.9258 54.9435 18.9258C53.6852 18.9258 52.9073 20.0687 52.9073 22.1373C52.9073 24.2058 53.6852 25.3373 54.9435 25.3373C56.2019 25.3373 57.0141 24.2058 57.0141 22.1487L56.9912 22.1373ZM62.0931 28.4916H65.6394C65.8008 28.8729 66.0828 29.1912 66.4422 29.3975C66.8016 29.6039 67.2187 29.6871 67.6298 29.6344C69.0369 29.6344 69.769 28.8801 69.769 27.7601V25.703H69.7804C69.4774 26.3436 68.9873 26.8774 68.3749 27.2344C67.7623 27.5914 67.0559 27.7548 66.3486 27.703C63.6603 27.703 61.8758 25.6573 61.8758 22.1373C61.8758 18.6173 63.5803 16.423 66.4516 16.423C67.1769 16.3842 67.8966 16.5711 68.5111 16.958C69.1257 17.3448 69.6052 17.9126 69.8834 18.583H69.7804V16.5144H73.4181V27.6458C73.4181 30.3316 71.0388 32.0116 67.5383 32.0116C64.3582 32.0001 62.3219 30.5487 62.116 28.503L62.0931 28.4916ZM69.7804 22.1373C69.7804 20.343 68.9568 19.2116 67.6527 19.2116C66.3486 19.2116 65.5478 20.3544 65.5478 22.1373C65.5478 23.9201 66.3372 24.9716 67.6527 24.9716C68.9682 24.9716 69.7804 24.0001 69.7804 22.1373ZM74.8709 22.1373C74.8709 18.4573 77.1588 16.2516 80.5906 16.2516C84.0225 16.2516 86.3103 18.4573 86.3103 22.1373C86.3103 25.8173 84.0911 28.0458 80.5906 28.0458C77.0902 28.0458 74.8938 25.8973 74.8938 22.1373H74.8709ZM82.6726 22.1373C82.6726 20.1144 81.8719 18.9258 80.625 18.9258C79.3781 18.9258 78.5888 20.0687 78.5888 22.1373C78.5888 24.2058 79.3666 25.3373 80.625 25.3373C81.8833 25.3373 82.6955 24.2058 82.6955 22.1487L82.6726 22.1373ZM87.7975 13.8058C87.7815 13.4321 87.8778 13.0622 88.074 12.7437C88.2701 12.425 88.5573 12.1725 88.8984 12.0183C89.2395 11.864 89.619 11.8153 89.988 11.8784C90.357 11.9414 90.6987 12.1133 90.9692 12.3719C91.2396 12.6306 91.4264 12.9641 91.5055 13.3297C91.5846 13.6953 91.5524 14.0762 91.4131 14.4233C91.2738 14.7705 91.0337 15.0681 90.7237 15.2778C90.4137 15.4876 90.0479 15.5998 89.6735 15.6001C89.4343 15.6062 89.1962 15.5647 88.9731 15.4782C88.75 15.3916 88.5463 15.2615 88.3739 15.0957C88.2015 14.9298 88.0638 14.7314 87.9688 14.5119C87.8738 14.2925 87.8233 14.0564 87.8203 13.8173L87.7975 13.8058ZM87.7975 16.503H91.5153V27.7716H87.8547L87.7975 16.503ZM104.888 22.1373C104.888 25.8058 103.241 27.9316 100.438 27.9316C99.7205 27.9758 99.0067 27.7989 98.393 27.4249C97.7793 27.0509 97.2953 26.4977 97.0062 25.8401H96.9375V31.3944H93.2655V16.5373H96.9147V18.5487H96.9833C97.2624 17.8782 97.7417 17.3098 98.3558 16.9213C98.97 16.5327 99.6891 16.3428 100.415 16.3773C103.298 16.3544 104.957 18.4687 104.957 22.1487L104.888 22.1373ZM101.147 22.1373C101.147 20.3544 100.312 19.2001 99.0195 19.2001C97.7269 19.2001 96.9147 20.343 96.9032 22.1373C96.8918 23.9316 97.7269 25.063 99.0195 25.063C100.312 25.063 101.216 24.0001 101.216 22.1487L101.147 22.1373ZM111.157 16.2401C114.234 16.2401 116.144 17.6916 116.167 20.023H112.815C112.815 19.2116 112.14 18.7087 111.134 18.7087C110.127 18.7087 109.647 19.0973 109.647 19.6801C109.647 20.263 110.07 20.4458 110.916 20.6173L113.273 21.0973C115.561 21.5773 116.476 22.4916 116.476 24.1944C116.476 26.4801 114.36 28.0344 111.214 28.0344C108.068 28.0344 106.02 26.5258 105.872 24.2287H109.429C109.532 25.063 110.196 25.5544 111.271 25.5544C112.346 25.5544 112.85 25.2116 112.85 24.6058C112.85 24.0001 112.507 23.8973 111.626 23.7144L109.498 23.2687C107.29 22.8001 106.135 21.6458 106.135 19.9201C106.203 17.6801 108.125 16.2516 111.225 16.2516L111.157 16.2401ZM128.773 27.7601H125.216V25.6458H125.147C124.948 26.3511 124.514 26.9674 123.917 27.3933C123.32 27.8192 122.596 28.0292 121.864 27.9887C121.311 28.0066 120.76 27.9077 120.249 27.6981C119.737 27.4886 119.275 27.1733 118.894 26.7729C118.512 26.3725 118.221 25.896 118.036 25.3749C117.852 24.8537 117.78 24.2994 117.826 23.7487V16.5144H121.498V22.9601C121.498 24.2858 122.196 25.0058 123.34 25.0058C123.608 25.0038 123.873 24.9442 124.116 24.8313C124.36 24.7183 124.576 24.5544 124.75 24.3508C124.925 24.1471 125.054 23.9084 125.129 23.6508C125.202 23.393 125.22 23.1225 125.181 22.8573V16.5144H128.842L128.773 27.7601ZM130.546 16.503H134.116V18.6744H134.196C134.392 17.9788 134.816 17.3681 135.397 16.938C135.979 16.5079 136.687 16.2825 137.41 16.2973C138.137 16.2342 138.861 16.444 139.439 16.8857C140.019 17.3274 140.413 17.9694 140.545 18.6858H140.705C140.933 17.9655 141.393 17.3408 142.014 16.9089C142.634 16.4769 143.381 16.262 144.136 16.2973C144.639 16.2782 145.14 16.3653 145.605 16.5528C146.072 16.7402 146.493 17.024 146.842 17.3855C147.191 17.7469 147.458 18.1778 147.629 18.6501C147.801 19.1223 147.869 19.6252 147.831 20.1258V27.7716H144.136V21.063C144.136 19.9201 143.599 19.2801 142.558 19.2801C142.327 19.2764 142.098 19.3225 141.886 19.4153C141.675 19.5082 141.487 19.6457 141.334 19.8183C141.181 19.991 141.066 20.1945 140.999 20.4153C140.932 20.6361 140.914 20.8687 140.945 21.0973V27.7716H137.444V21.0287C137.444 19.8858 136.884 19.2801 135.877 19.2801C135.644 19.2783 135.413 19.3263 135.2 19.4209C134.986 19.5157 134.796 19.6548 134.641 19.829C134.486 20.0033 134.371 20.2087 134.302 20.4313C134.232 20.6541 134.212 20.8889 134.241 21.1201V27.7716H130.569L130.546 16.503Z" fill="white"/>
<path d="M36.7892 13.8398C36.7893 11.5652 36.1018 9.34355 34.8167 7.46591C33.5316 5.58826 31.7087 4.14215 29.587 3.317C27.4654 2.49185 25.1436 2.32613 22.9261 2.84155C20.7085 3.35697 18.6984 4.52949 17.1592 6.20554H2.88281V36.3084H33.0256V22.2398C34.2087 21.1827 35.1554 19.8882 35.8039 18.4407C36.4524 16.9933 36.7881 15.4257 36.7892 13.8398ZM30.9894 13.8398C30.9917 14.9298 30.6702 15.9959 30.0658 16.9034C29.4612 17.8107 28.601 18.5186 27.5936 18.9372C26.5862 19.3559 25.4773 19.4667 24.4069 19.2554C23.3367 19.0442 22.3531 18.5204 21.5808 17.7505C20.8085 16.9805 20.2823 15.999 20.0686 14.9301C19.855 13.8613 19.9635 12.7531 20.3805 11.7459C20.7975 10.7386 21.5042 9.87764 22.4111 9.27185C23.3181 8.66605 24.3846 8.3427 25.4756 8.34268C26.9359 8.34268 28.3367 8.92148 29.3704 9.95207C30.4041 10.9826 30.9864 12.3809 30.9894 13.8398ZM27.2258 30.5141H8.68259V11.9998H14.3336C14.2245 12.6073 14.1671 13.2228 14.162 13.8398C14.1651 16.8366 15.358 19.7098 17.4791 21.8289C19.6001 23.9478 22.476 25.1397 25.4756 25.1427C26.0621 25.1396 26.6473 25.0899 27.2258 24.9941V30.5141Z" fill="white"/>
</svg>
