<svg width="181" height="40" viewBox="0 0 181 40" fill="none" xmlns="http://www.w3.org/2000/svg">
<path d="M53.0182 26.6958C53.0182 27.569 52.8391 28.2399 52.481 28.7087C52.1322 29.1775 51.5491 29.4118 50.7319 29.4118C49.9605 29.4118 49.4142 29.1775 49.0928 28.7087C48.7806 28.2399 48.6245 27.569 48.6245 26.6958V12.1232C48.6245 11.2501 48.7806 10.5791 49.0928 10.1104C49.4142 9.6416 49.9605 9.40723 50.7319 9.40723C51.5491 9.40723 52.1322 9.6416 52.481 10.1104C52.8391 10.5791 53.0182 11.2501 53.0182 12.1232V26.6958Z" fill="white"/>
<path d="M54.3519 22.4632C54.3519 21.4889 54.508 20.5698 54.8203 19.7058C55.1416 18.8326 55.619 18.0698 56.2527 17.4172C56.8954 16.7646 57.6943 16.2453 58.6493 15.8593C59.6134 15.4732 60.7428 15.2803 62.0375 15.2803C63.2771 15.2803 64.3744 15.4594 65.3293 15.8179C66.2843 16.1764 67.0877 16.6773 67.7396 17.3207C68.3915 17.9549 68.8874 18.7131 69.2272 19.5955C69.5669 20.4686 69.7368 21.4245 69.7368 22.4632C69.7368 23.4283 69.576 24.3427 69.2547 25.2067C68.9334 26.0615 68.4512 26.8152 67.8085 27.4678C67.1658 28.1111 66.3623 28.6258 65.3982 29.0119C64.434 29.3887 63.3138 29.5771 62.0375 29.5771C60.7795 29.5771 59.6685 29.3979 58.7043 29.0394C57.7493 28.6718 56.946 28.1709 56.294 27.5366C55.6512 26.8933 55.1645 26.1397 54.834 25.2757C54.5126 24.4025 54.3519 23.465 54.3519 22.4632ZM58.9385 22.4632C58.9385 23.0698 58.9935 23.6489 59.1038 24.2003C59.2139 24.7425 59.3884 25.2205 59.6271 25.6342C59.875 26.0477 60.1965 26.3786 60.5913 26.6267C60.9862 26.8657 61.4682 26.9852 62.0375 26.9852C62.5609 26.9852 63.0154 26.875 63.401 26.6543C63.7959 26.4338 64.1172 26.1258 64.3652 25.7306C64.6223 25.3354 64.8151 24.862 64.9436 24.3106C65.0722 23.7499 65.1365 23.1342 65.1365 22.4632C65.1365 21.8565 65.0768 21.282 64.9575 20.7398C64.8472 20.1884 64.6682 19.7058 64.4202 19.2922C64.1724 18.8694 63.851 18.5385 63.4561 18.2996C63.0705 18.0514 62.5975 17.9273 62.0375 17.9273C61.4773 17.9273 60.9999 18.0467 60.605 18.2858C60.2102 18.5247 59.8889 18.851 59.6409 19.2646C59.393 19.6783 59.2139 20.1607 59.1038 20.7123C58.9935 21.2637 58.9385 21.8473 58.9385 22.4632Z" fill="white"/>
<path d="M81.0426 26.7507C80.7946 27.2102 80.4916 27.6008 80.1334 27.9226C79.7846 28.2442 79.3943 28.5108 78.9628 28.7222C78.5404 28.9243 78.0859 29.076 77.5992 29.1771C77.1217 29.269 76.6305 29.315 76.1255 29.315C75.2806 29.315 74.5094 29.1634 73.8115 28.86C73.1137 28.5567 72.5123 28.1201 72.0072 27.5503C71.5114 26.9713 71.1258 26.2635 70.8503 25.4271C70.5748 24.5907 70.437 23.6348 70.437 22.5595C70.437 21.5484 70.5656 20.6017 70.8228 19.7194C71.0798 18.837 71.4517 18.0696 71.9384 17.417C72.4342 16.7644 73.0402 16.2497 73.7565 15.8729C74.4726 15.4961 75.2899 15.3076 76.2081 15.3076C77.2548 15.3076 78.1823 15.5099 78.9903 15.9142C79.8075 16.3187 80.51 16.9804 81.0977 17.8995V17.5411C81.0977 16.8794 81.2767 16.383 81.6348 16.0521C82.0021 15.7121 82.5071 15.542 83.1499 15.542C83.5355 15.542 83.8615 15.6063 84.1278 15.735C84.394 15.8546 84.6052 16.0383 84.7613 16.2866C84.9175 16.5255 85.0276 16.8242 85.0919 17.1827C85.1654 17.5319 85.202 17.9317 85.202 18.3821V27.6193C85.202 28.7406 85.0598 29.7423 84.7751 30.6247C84.4997 31.507 84.0681 32.2516 83.4804 32.8582C82.8927 33.4648 82.1398 33.9243 81.2216 34.2369C80.3034 34.5586 79.2107 34.7194 77.9436 34.7194C77.0529 34.7194 76.2632 34.6781 75.5745 34.5953C74.895 34.5219 74.3074 34.4069 73.8115 34.2507C73.3157 34.076 72.9393 33.883 72.6821 33.6716C72.4342 33.4602 72.3102 33.1844 72.3102 32.8444C72.3102 32.6514 72.3377 32.4676 72.3929 32.2929C72.448 32.1183 72.5306 31.9621 72.6407 31.8242C72.7602 31.6955 72.9117 31.5899 73.0954 31.507C73.2881 31.4336 73.5222 31.3968 73.7977 31.3968C74.0916 31.3968 74.3854 31.4151 74.6792 31.452C74.9822 31.4887 75.2945 31.5255 75.6158 31.5622C75.9463 31.6082 76.2907 31.6495 76.6488 31.6863C77.0161 31.723 77.4109 31.7415 77.8333 31.7415C78.3384 31.7415 78.7883 31.6909 79.1832 31.5899C79.578 31.4887 79.9131 31.3095 80.1886 31.0521C80.4641 30.7948 80.6753 30.4501 80.8222 30.0181C80.9691 29.5953 81.0426 29.053 81.0426 28.3913V26.7507ZM81.0426 22.463C81.0426 21.792 80.992 21.1808 80.8911 20.6294C80.7993 20.0779 80.6385 19.6091 80.4089 19.223C80.1794 18.8279 79.8718 18.5246 79.4862 18.3131C79.1004 18.0926 78.6184 17.9823 78.04 17.9823C77.4706 17.9823 76.9978 18.0971 76.6213 18.3269C76.254 18.5567 75.9602 18.8739 75.7398 19.2782C75.5195 19.6827 75.3634 20.156 75.2715 20.6983C75.1888 21.2406 75.1476 21.8196 75.1476 22.4354C75.1476 23.8416 75.3955 24.8987 75.8913 25.6063C76.3871 26.3141 77.1079 26.668 78.0537 26.668C78.4945 26.6588 78.8939 26.576 79.252 26.4197C79.6192 26.2543 79.9361 26.0016 80.2023 25.6615C80.4686 25.3214 80.6753 24.8894 80.8222 24.3655C80.9691 23.8416 81.0426 23.2075 81.0426 22.463Z" fill="white"/>
<path d="M86.467 22.4632C86.467 21.4889 86.6231 20.5698 86.9353 19.7058C87.2567 18.8326 87.7342 18.0698 88.3678 17.4172C89.0106 16.7646 89.8093 16.2453 90.7643 15.8593C91.7285 15.4732 92.8579 15.2803 94.1526 15.2803C95.3921 15.2803 96.4894 15.4594 97.4443 15.8179C98.3993 16.1764 99.2027 16.6773 99.8547 17.3207C100.507 17.9549 101.003 18.7131 101.342 19.5955C101.682 20.4686 101.852 21.4245 101.852 22.4632C101.852 23.4283 101.691 24.3427 101.37 25.2067C101.048 26.0615 100.566 26.8152 99.9236 27.4678C99.2808 28.1111 98.4773 28.6258 97.5132 29.0119C96.5491 29.3887 95.4289 29.5771 94.1526 29.5771C92.8945 29.5771 91.7835 29.3979 90.8194 29.0394C89.8644 28.6718 89.061 28.1709 88.409 27.5366C87.7664 26.8933 87.2797 26.1397 86.949 25.2757C86.6277 24.4025 86.467 23.465 86.467 22.4632ZM91.0535 22.4632C91.0535 23.0698 91.1086 23.6489 91.2189 24.2003C91.329 24.7425 91.5034 25.2205 91.7422 25.6342C91.9901 26.0477 92.3115 26.3786 92.7064 26.6267C93.1012 26.8657 93.5833 26.9852 94.1526 26.9852C94.676 26.9852 95.1305 26.875 95.5161 26.6543C95.9109 26.4338 96.2323 26.1258 96.4802 25.7306C96.7374 25.3354 96.9301 24.862 97.0587 24.3106C97.1873 23.7499 97.2516 23.1342 97.2516 22.4632C97.2516 21.8565 97.1919 21.282 97.0725 20.7398C96.9623 20.1884 96.7832 19.7058 96.5353 19.2922C96.2875 18.8694 95.966 18.5385 95.5712 18.2996C95.1856 18.0514 94.7126 17.9273 94.1526 17.9273C93.5924 17.9273 93.1149 18.0467 92.7201 18.2858C92.3253 18.5247 92.0039 18.851 91.756 19.2646C91.5081 19.6783 91.329 20.1607 91.2189 20.7123C91.1086 21.2637 91.0535 21.8473 91.0535 22.4632Z" fill="white"/>
<path d="M107.758 10.6345C107.758 10.9379 107.689 11.209 107.552 11.448C107.414 11.6777 107.235 11.8707 107.015 12.0271C106.794 12.1833 106.537 12.3027 106.243 12.3854C105.959 12.4589 105.665 12.4958 105.362 12.4958C105.04 12.4958 104.733 12.4543 104.439 12.3716C104.154 12.2889 103.902 12.1695 103.681 12.0132C103.461 11.8478 103.287 11.6502 103.158 11.4204C103.03 11.1906 102.965 10.9287 102.965 10.6345C102.965 10.368 103.025 10.1244 103.144 9.90384C103.273 9.67406 103.443 9.47645 103.654 9.311C103.865 9.14557 104.118 9.01689 104.411 8.92498C104.705 8.83306 105.027 8.78711 105.376 8.78711C105.679 8.78711 105.972 8.82847 106.257 8.91119C106.551 8.99391 106.808 9.11339 107.028 9.26965C107.249 9.4259 107.423 9.61891 107.552 9.84869C107.689 10.0785 107.758 10.3404 107.758 10.6345ZM107.552 26.6961C107.552 27.5693 107.373 28.2402 107.015 28.7089C106.666 29.1778 106.083 29.4121 105.265 29.4121C104.494 29.4121 103.948 29.1778 103.626 28.7089C103.314 28.2402 103.158 27.5693 103.158 26.6961V18.2586C103.158 17.3854 103.314 16.7145 103.626 16.2458C103.948 15.7771 104.494 15.5426 105.265 15.5426C106.083 15.5426 106.666 15.7771 107.015 16.2458C107.373 16.7145 107.552 17.3854 107.552 18.2586V26.6961Z" fill="white"/>
<path d="M113.885 22.4354C113.885 23.0513 113.931 23.6256 114.023 24.1588C114.124 24.6919 114.289 25.1606 114.519 25.565C114.758 25.9602 115.07 26.2727 115.455 26.5024C115.85 26.7323 116.337 26.8471 116.915 26.8471C117.448 26.8471 117.893 26.7369 118.252 26.5163C118.618 26.2866 118.912 25.974 119.133 25.5788C119.353 25.1743 119.509 24.701 119.601 24.1588C119.702 23.6164 119.753 23.0282 119.753 22.3941C119.753 21.8886 119.716 21.3739 119.642 20.85C119.569 20.3168 119.432 19.8343 119.23 19.4023C119.027 18.9703 118.748 18.6164 118.389 18.3407C118.031 18.065 117.563 17.9271 116.984 17.9271C116.406 17.9271 115.914 18.019 115.51 18.2029C115.116 18.3867 114.794 18.667 114.546 19.0439C114.308 19.4207 114.138 19.8941 114.037 20.4639C113.936 21.0246 113.885 21.6817 113.885 22.4354ZM113.872 18.258C114.101 17.7709 114.395 17.3435 114.753 16.9759C115.111 16.6082 115.506 16.3003 115.937 16.0521C116.369 15.804 116.819 15.6201 117.287 15.5007C117.765 15.372 118.238 15.3076 118.705 15.3076C119.55 15.3076 120.313 15.4961 120.993 15.8729C121.672 16.2497 122.25 16.7644 122.727 17.417C123.214 18.0604 123.587 18.8233 123.844 19.7056C124.1 20.5788 124.229 21.5163 124.229 22.5181C124.229 23.5567 124.091 24.508 123.816 25.372C123.55 26.236 123.168 26.9804 122.672 27.6054C122.186 28.2213 121.598 28.7037 120.909 29.053C120.23 29.4023 119.473 29.5769 118.637 29.5769C117.609 29.5769 116.69 29.338 115.882 28.86C115.074 28.3821 114.404 27.7111 113.872 26.8471V31.8104C113.872 32.6835 113.692 33.3546 113.334 33.8233C112.985 34.292 112.402 34.5264 111.585 34.5264C110.814 34.5264 110.267 34.292 109.946 33.8233C109.634 33.3546 109.478 32.6835 109.478 31.8104V18.258C109.478 17.3848 109.634 16.7139 109.946 16.2451C110.267 15.7764 110.814 15.542 111.585 15.542C112.402 15.542 112.985 15.7764 113.334 16.2451C113.692 16.7139 113.872 17.3848 113.872 18.258Z" fill="white"/>
<path d="M129.075 19.2371C129.075 19.5955 129.232 19.8758 129.543 20.078C129.856 20.2711 130.287 20.4319 130.838 20.5606C131.361 20.68 131.898 20.795 132.45 20.9052C133.001 21.0156 133.538 21.1443 134.061 21.2913C134.584 21.4291 135.075 21.5946 135.535 21.7876C135.993 21.9806 136.398 22.2242 136.747 22.5183C137.096 22.8032 137.371 23.1525 137.573 23.566C137.775 23.9705 137.876 24.4577 137.876 25.0274C137.876 25.7444 137.729 26.3832 137.435 26.9438C137.142 27.4953 136.724 27.964 136.183 28.3502C135.65 28.7362 135.012 29.0349 134.268 29.2463C133.524 29.4577 132.702 29.5679 131.802 29.5771C130.949 29.5771 130.126 29.522 129.336 29.4117C128.548 29.3106 127.845 29.1497 127.229 28.9291C126.624 28.7085 126.137 28.4374 125.769 28.1157C125.402 27.7849 125.219 27.3989 125.219 26.9577C125.219 26.5716 125.343 26.2729 125.591 26.0614C125.839 25.8502 126.155 25.7444 126.541 25.7444C126.688 25.7444 126.862 25.7719 127.064 25.8271C127.267 25.8823 127.486 25.9512 127.725 26.0339C127.964 26.1166 128.216 26.2085 128.483 26.3097C128.758 26.4016 129.042 26.4843 129.336 26.5578C129.704 26.659 130.08 26.7417 130.466 26.806C130.861 26.8611 131.265 26.8887 131.679 26.8887C131.935 26.8887 132.188 26.8657 132.436 26.8198C132.684 26.7646 132.905 26.6865 133.097 26.5855C133.299 26.4751 133.464 26.3372 133.593 26.1718C133.721 26.0064 133.799 25.8042 133.827 25.5652C133.854 25.51 133.878 25.4549 133.895 25.3997C133.914 25.3446 133.924 25.2803 133.924 25.2067C133.924 24.9493 133.804 24.7196 133.565 24.5173C133.336 24.3152 133.009 24.1543 132.587 24.0349C131.88 23.8695 131.205 23.7178 130.562 23.5799C129.92 23.442 129.323 23.295 128.772 23.1387C128.23 22.9825 127.734 22.8032 127.284 22.601C126.843 22.3989 126.467 22.1506 126.155 21.8565C125.853 21.5624 125.613 21.2085 125.439 20.795C125.273 20.3813 125.191 19.8804 125.191 19.2922C125.191 18.658 125.333 18.0927 125.618 17.5964C125.911 17.0909 126.33 16.6682 126.872 16.328C127.413 15.9879 128.069 15.7306 128.841 15.556C129.612 15.3722 130.485 15.2803 131.458 15.2803C133.202 15.2803 134.529 15.4917 135.439 15.9144C136.357 16.328 136.816 16.8703 136.816 17.5413C136.816 17.9182 136.691 18.2077 136.443 18.4098C136.195 18.6029 135.897 18.6993 135.549 18.6993C135.365 18.6993 135.172 18.6672 134.97 18.6029C134.777 18.5293 134.543 18.4512 134.268 18.3685C133.992 18.2766 133.661 18.1985 133.276 18.1342C132.9 18.0606 132.431 18.0238 131.871 18.0238C131.448 18.0238 131.063 18.0422 130.714 18.079C130.374 18.1157 130.08 18.18 129.832 18.2719C129.594 18.3639 129.406 18.4879 129.268 18.6443C129.139 18.8005 129.075 18.998 129.075 19.2371Z" fill="white"/>
<path d="M143.466 24.2966C143.466 24.7286 143.521 25.1054 143.632 25.4272C143.75 25.7488 143.911 26.02 144.114 26.2406C144.316 26.452 144.55 26.6128 144.815 26.723C145.091 26.8242 145.385 26.8748 145.697 26.8748C146.065 26.8748 146.418 26.8196 146.758 26.7093C147.098 26.5991 147.396 26.4289 147.654 26.1992C147.919 25.9694 148.131 25.6799 148.287 25.3306C148.442 24.9814 148.521 24.5723 148.521 24.1036V18.258C148.521 17.3848 148.677 16.7139 148.989 16.2452C149.311 15.7765 149.857 15.542 150.628 15.542C151.445 15.542 152.028 15.7765 152.377 16.2452C152.736 16.7139 152.914 17.3848 152.914 18.258V26.6955C152.914 27.5687 152.736 28.2396 152.377 28.7083C152.028 29.1772 151.445 29.4115 150.628 29.4115C149.857 29.4115 149.311 29.1772 148.989 28.7083C148.677 28.2396 148.521 27.5687 148.521 26.6955C148.328 27.1183 148.076 27.5043 147.763 27.8536C147.46 28.2029 147.102 28.5062 146.689 28.7635C146.284 29.0118 145.835 29.2047 145.339 29.3426C144.853 29.4805 144.324 29.5494 143.755 29.5494C143.14 29.5494 142.548 29.4436 141.978 29.2323C141.419 29.0118 140.923 28.69 140.491 28.2672C140.06 27.8353 139.716 27.3021 139.458 26.668C139.201 26.0338 139.073 25.2939 139.073 24.4482V18.258C139.073 17.3848 139.229 16.7139 139.54 16.2452C139.862 15.7765 140.408 15.542 141.18 15.542C141.997 15.542 142.58 15.7765 142.929 16.2452C143.287 16.7139 143.466 17.3848 143.466 18.258V24.2966Z" fill="white"/>
<path d="M154.909 18.258C154.909 17.3848 155.065 16.7139 155.378 16.2451C155.699 15.7764 156.245 15.542 157.016 15.542C157.834 15.542 158.417 15.7764 158.766 16.2451C159.124 16.7139 159.303 17.3848 159.303 18.258C159.487 17.8168 159.735 17.417 160.047 17.0586C160.368 16.6909 160.732 16.3784 161.135 16.121C161.548 15.8637 161.994 15.6661 162.471 15.5282C162.948 15.3811 163.444 15.3076 163.959 15.3076C164.436 15.3076 164.904 15.372 165.363 15.5007C165.831 15.6201 166.264 15.8177 166.659 16.0935C167.062 16.36 167.416 16.7001 167.719 17.1137C168.022 17.5273 168.256 18.0236 168.422 18.6027C168.706 17.9869 169.041 17.4676 169.427 17.0448C169.812 16.622 170.23 16.2819 170.679 16.0246C171.13 15.7671 171.599 15.5834 172.085 15.473C172.581 15.3628 173.076 15.3076 173.572 15.3076C174.16 15.3076 174.72 15.4134 175.253 15.6247C175.794 15.8361 176.267 16.1579 176.671 16.5899C177.085 17.0126 177.411 17.5503 177.649 18.2029C177.897 18.8462 178.021 19.6 178.021 20.4639V26.6955C178.021 27.5687 177.842 28.2396 177.483 28.7083C177.136 29.1771 176.551 29.4115 175.735 29.4115C174.964 29.4115 174.417 29.1771 174.096 28.7083C173.783 28.2396 173.627 27.5687 173.627 26.6955V20.6569C173.627 20.2433 173.572 19.8756 173.463 19.554C173.352 19.223 173.196 18.9474 172.994 18.7268C172.801 18.497 172.572 18.3269 172.305 18.2167C172.039 18.0971 171.754 18.0374 171.452 18.0374C171.074 18.0374 170.717 18.0971 170.377 18.2167C170.038 18.3361 169.739 18.52 169.482 18.7681C169.234 19.0163 169.032 19.3334 168.875 19.7194C168.728 20.1054 168.656 20.5696 168.656 21.1119V26.6955C168.656 27.5687 168.476 28.2396 168.118 28.7083C167.769 29.1771 167.186 29.4115 166.368 29.4115C165.597 29.4115 165.051 29.1771 164.73 28.7083C164.417 28.2396 164.261 27.5687 164.261 26.6955V20.9188C164.261 19.9722 164.064 19.2553 163.67 18.7681C163.283 18.281 162.755 18.0374 162.085 18.0374C161.691 18.0374 161.323 18.1017 160.983 18.2304C160.643 18.3591 160.35 18.5475 160.102 18.7957C159.854 19.0439 159.656 19.3517 159.509 19.7194C159.372 20.087 159.303 20.5099 159.303 20.9877V26.6955C159.303 27.5687 159.124 28.2396 158.766 28.7083C158.417 29.1771 157.834 29.4115 157.016 29.4115C156.245 29.4115 155.699 29.1771 155.378 28.7083C155.065 28.2396 154.909 27.5687 154.909 26.6955V18.258Z" fill="white"/>
<path d="M19.9805 27.0591C16.0859 27.0591 12.9286 23.8987 12.9286 20.0002C12.9286 16.1018 16.0859 12.9414 19.9805 12.9414C23.8752 12.9414 27.0325 16.1018 27.0325 20.0002C27.0325 23.8987 23.8752 27.0591 19.9805 27.0591Z" fill="white"/>
<path d="M6.31887 22.4111C4.27527 22.7718 2.8745 24.7478 3.65897 26.6709C4.75418 29.3556 6.50146 31.7476 8.76667 33.6167C12.0058 36.2893 16.0912 37.7174 20.2883 37.6442C24.4854 37.5709 28.5186 36.0009 31.6626 33.2166C33.8612 31.2696 35.524 28.8179 36.525 26.0966C37.242 24.1473 35.7731 22.2214 33.7181 21.9324C31.6633 21.6433 29.8183 23.1405 28.8033 24.9523C28.2531 25.9343 27.5389 26.8252 26.6832 27.583C24.8793 29.1805 22.5652 30.0812 20.1572 30.1233C17.7491 30.1653 15.405 29.346 13.5466 27.8125C12.665 27.0851 11.9202 26.2197 11.3361 25.2574C10.2586 23.4823 8.36247 22.0504 6.31887 22.4111Z" fill="white"/>
<path d="M37.4741 22.2049C37.5641 21.4824 37.6104 20.7464 37.6104 19.9996C37.6104 10.2534 29.7173 2.35254 19.9806 2.35254C10.2439 2.35254 2.35071 10.2534 2.35071 19.9996C2.35071 20.9581 2.42705 21.8987 2.57397 22.8157C3.38375 21.7061 4.6476 20.914 6.01274 20.673C7.48976 20.4123 8.83213 20.7709 9.96713 21.4411C9.90008 20.9703 9.86538 20.489 9.86538 19.9996C9.86538 14.4077 14.3941 9.87454 19.9806 9.87454C25.567 9.87454 30.0958 14.4077 30.0958 19.9996C30.0958 20.3683 30.076 20.7324 30.0377 21.0909C31.1487 20.3811 32.478 19.9756 33.9635 20.1847C35.3358 20.3777 36.6261 21.1248 37.4741 22.2049Z" fill="white"/>
</svg>
