<svg width="24" height="24" viewBox="0 0 24 24" fill="none" xmlns="http://www.w3.org/2000/svg">
<g clip-path="url(#clip0_225_19238)">
<path d="M14.5714 8.57139C15.5182 8.57139 16.2857 7.80388 16.2857 6.85711C16.2857 5.91033 15.5182 5.14282 14.5714 5.14282C13.6247 5.14282 12.8571 5.91033 12.8571 6.85711C12.8571 7.80388 13.6247 8.57139 14.5714 8.57139Z" stroke="white" stroke-width="1.5" stroke-linecap="round" stroke-linejoin="round"/>
<path d="M7.71429 17.143C8.18768 17.143 8.57143 16.7592 8.57143 16.2859C8.57143 15.8125 8.18768 15.4287 7.71429 15.4287C7.2409 15.4287 6.85715 15.8125 6.85715 16.2859C6.85715 16.7592 7.2409 17.143 7.71429 17.143Z" stroke="white" stroke-width="1.5" stroke-linecap="round" stroke-linejoin="round"/>
<path d="M7.71429 11.1429C8.66106 11.1429 9.42857 10.3754 9.42857 9.42864C9.42857 8.48187 8.66106 7.71436 7.71429 7.71436C6.76751 7.71436 6 8.48187 6 9.42864C6 10.3754 6.76751 11.1429 7.71429 11.1429Z" stroke="white" stroke-width="1.5" stroke-linecap="round" stroke-linejoin="round"/>
<path d="M16.32 21.0515C16.3009 20.7189 16.1853 20.3992 15.9875 20.1313C15.7896 19.8634 15.5179 19.6589 15.2057 19.5429C14.4304 19.2881 13.7713 18.765 13.3471 18.0677C12.9229 17.3704 12.7614 16.5447 12.8916 15.739C13.0217 14.9333 13.435 14.2004 14.0572 13.6721C14.6794 13.1439 15.4696 12.8549 16.2857 12.8572H19.4914C20.0413 12.8587 20.5834 12.728 21.0721 12.476C21.5608 12.2241 21.9817 11.8583 22.2994 11.4095C22.6171 10.9608 22.8221 10.4422 22.8973 9.89751C22.9725 9.35285 22.9156 8.79809 22.7314 8.28004C22.0496 6.35484 20.8517 4.65407 19.2688 3.36355C17.6858 2.07302 15.7786 1.24239 13.7555 0.962391C11.7324 0.682397 9.67125 0.963815 7.79727 1.7759C5.92329 2.58798 4.30854 3.89949 3.12946 5.56714C1.95037 7.23479 1.2523 9.19442 1.11152 11.2319C0.97073 13.2694 1.39264 15.3065 2.33116 17.1204C3.26967 18.9344 4.68869 20.4555 6.43317 21.5176C8.17765 22.5798 10.1805 23.142 12.2229 23.1429C13.2315 23.1457 14.2355 23.0072 15.2057 22.7315C15.5621 22.6316 15.8706 22.407 16.0752 22.0986C16.2797 21.7902 16.3666 21.4186 16.32 21.0515V21.0515Z" stroke="white" stroke-width="1.5" stroke-linecap="round" stroke-linejoin="round"/>
</g>
<defs>
<clipPath id="clip0_225_19238">
<rect width="24" height="24" fill="white"/>
</clipPath>
</defs>
</svg>
