<svg width="24" height="24" viewBox="0 0 24 24" fill="none" xmlns="http://www.w3.org/2000/svg">
<g clip-path="url(#clip0_225_15192)">
<path d="M6.85714 11.1255L1.35428 16.5769C1.1936 16.7363 1.06607 16.9259 0.979039 17.1348C0.892007 17.3437 0.847198 17.5678 0.847198 17.7941C0.847198 18.0204 0.892007 18.2444 0.979039 18.4533C1.06607 18.6622 1.1936 18.8518 1.35428 19.0112L4.98857 22.6455C5.14793 22.8062 5.33753 22.9337 5.54644 23.0207C5.75534 23.1078 5.9794 23.1526 6.20571 23.1526C6.43202 23.1526 6.65608 23.1078 6.86498 23.0207C7.07389 22.9337 7.26349 22.8062 7.42285 22.6455L12.8743 17.1426" stroke="white" stroke-width="1.5" stroke-linecap="round" stroke-linejoin="round"/>
<path d="M17.1428 12.8743L22.5943 7.42282C22.755 7.26346 22.8825 7.07386 22.9695 6.86495C23.0565 6.65605 23.1014 6.43199 23.1014 6.20568C23.1014 5.97937 23.0565 5.75531 22.9695 5.54641C22.8825 5.3375 22.755 5.1479 22.5943 4.98854L19.0114 1.35425C18.8521 1.19357 18.6625 1.06604 18.4535 0.979008C18.2446 0.891976 18.0206 0.847168 17.7943 0.847168C17.568 0.847168 17.3439 0.891976 17.135 0.979008C16.9261 1.06604 16.7365 1.19357 16.5771 1.35425L11.1257 6.85711" stroke="white" stroke-width="1.5" stroke-linecap="round" stroke-linejoin="round"/>
<path d="M15.4286 8.57129L8.57141 15.4284" stroke="white" stroke-width="1.5" stroke-linecap="round" stroke-linejoin="round"/>
</g>
<defs>
<clipPath id="clip0_225_15192">
<rect width="24" height="24" fill="white"/>
</clipPath>
</defs>
</svg>
