<svg width="30" height="30" viewBox="0 0 30 30" fill="none" xmlns="http://www.w3.org/2000/svg">
<g clip-path="url(#clip0_305_209)">
<path d="M23.7094 18.583C23.0953 17.9435 22.3544 17.6016 21.5693 17.6016C20.7905 17.6016 20.0434 17.9372 19.4039 18.5767L17.403 20.5712C17.2384 20.4826 17.0738 20.4002 16.9155 20.3179C16.6876 20.204 16.4723 20.0963 16.2887 19.9823C14.4145 18.792 12.7113 17.2407 11.0777 15.2336C10.2862 14.2332 9.75435 13.391 9.36811 12.5363C9.88731 12.0614 10.3685 11.5675 10.8371 11.0926C11.0144 10.9153 11.1916 10.7317 11.3689 10.5544C12.6986 9.22478 12.6986 7.50256 11.3689 6.1729L9.64038 4.44434C9.44409 4.24806 9.24148 4.04545 9.05153 3.84283C8.67163 3.45027 8.27273 3.04504 7.86117 2.66514C7.24699 2.05729 6.51251 1.73438 5.74005 1.73438C4.96758 1.73438 4.22044 2.05729 3.58727 2.66514C3.58094 2.67147 3.58094 2.67147 3.5746 2.6778L1.42182 4.84957C0.611365 5.66003 0.149151 6.64778 0.0478436 7.79382C-0.104117 9.64268 0.440409 11.3649 0.858302 12.4919C1.88404 15.2589 3.41631 17.8232 5.70206 20.5712C8.47534 23.8827 11.8122 26.4977 15.6238 28.3402C17.0801 29.0304 19.024 29.8471 21.1957 29.9864C21.3287 29.9928 21.468 29.9991 21.5946 29.9991C23.0573 29.9991 24.2856 29.4736 25.248 28.4288C25.2544 28.4162 25.267 28.4098 25.2734 28.3972C25.6026 27.9983 25.9825 27.6374 26.3814 27.2511C26.6537 26.9915 26.9323 26.7193 27.2045 26.4344C27.8314 25.7822 28.1606 25.0224 28.1606 24.2436C28.1606 23.4585 27.825 22.705 27.1855 22.0718L23.7094 18.583ZM25.9762 25.2503C25.9698 25.2503 25.9698 25.2567 25.9762 25.2503C25.7292 25.5163 25.476 25.7569 25.2037 26.0228C24.7921 26.4154 24.3743 26.8269 23.9817 27.2891C23.3422 27.973 22.5887 28.2959 21.601 28.2959C21.506 28.2959 21.4047 28.2959 21.3097 28.2895C19.4292 28.1692 17.6816 27.4348 16.371 26.8079C12.7872 25.073 9.64038 22.61 7.02538 19.4885C4.86627 16.8861 3.42264 14.4801 2.46656 11.8968C1.87771 10.3202 1.66243 9.09182 1.7574 7.93311C1.82072 7.19231 2.10565 6.57813 2.63118 6.0526L4.79029 3.89349C5.10054 3.60223 5.42979 3.44394 5.75271 3.44394C6.15161 3.44394 6.47452 3.68454 6.67714 3.88715C6.68347 3.89349 6.6898 3.89982 6.69613 3.90615C7.08237 4.26706 7.44961 4.64063 7.83584 5.03953C8.03212 5.24214 8.23474 5.44475 8.43735 5.6537L10.1659 7.38226C10.8371 8.05342 10.8371 8.67392 10.1659 9.34509C9.98229 9.5287 9.805 9.71232 9.62138 9.88961C9.08952 10.4341 8.58298 10.9407 8.03212 11.4345C8.01946 11.4472 8.0068 11.4535 8.00047 11.4662C7.45594 12.0107 7.55725 12.5426 7.67122 12.9035C7.67755 12.9225 7.68388 12.9415 7.69021 12.9605C8.13976 14.0495 8.77293 15.0753 9.73535 16.2973L9.74168 16.3036C11.4892 18.4564 13.3318 20.1343 15.3642 21.4196C15.6238 21.5843 15.8898 21.7172 16.143 21.8439C16.371 21.9578 16.5863 22.0655 16.7699 22.1795C16.7952 22.1921 16.8205 22.2111 16.8459 22.2238C17.0611 22.3314 17.2638 22.3821 17.4727 22.3821C17.9982 22.3821 18.3275 22.0528 18.4351 21.9452L20.6006 19.7797C20.8158 19.5645 21.1577 19.3049 21.5566 19.3049C21.9492 19.3049 22.2721 19.5518 22.4684 19.7671C22.4747 19.7734 22.4747 19.7734 22.4811 19.7797L25.9698 23.2685C26.622 23.9143 26.622 24.5792 25.9762 25.2503Z" fill="white"/>
<path d="M16.2127 7.13708C17.8716 7.41568 19.3785 8.20081 20.5816 9.40383C21.7846 10.6069 22.5634 12.1138 22.8483 13.7727C22.918 14.1906 23.2789 14.4819 23.6904 14.4819C23.7411 14.4819 23.7854 14.4755 23.8361 14.4692C24.3046 14.3932 24.6149 13.95 24.5389 13.4815C24.197 11.4743 23.2472 9.64444 21.7973 8.19448C20.3473 6.74452 18.5174 5.79476 16.5103 5.45285C16.0417 5.37687 15.6048 5.68712 15.5225 6.14934C15.4402 6.61155 15.7441 7.0611 16.2127 7.13708Z" fill="white"/>
<path d="M29.9652 13.2336C29.4016 9.92848 27.844 6.92092 25.4507 4.52754C23.0573 2.13415 20.0497 0.576553 16.7446 0.0130316C16.2823 -0.0692806 15.8455 0.247305 15.7631 0.709519C15.6872 1.17807 15.9974 1.61495 16.466 1.69727C19.4165 2.19747 22.1075 3.59678 24.2476 5.73056C26.3877 7.87068 27.7807 10.5617 28.2809 13.5122C28.3506 13.9301 28.7115 14.2214 29.123 14.2214C29.1737 14.2214 29.218 14.215 29.2687 14.2087C29.7309 14.1391 30.0475 13.6958 29.9652 13.2336Z" fill="white"/>
</g>
<defs>
<clipPath id="clip0_305_209">
<rect width="30" height="30" fill="white"/>
</clipPath>
</defs>
</svg>
