<svg width="30" height="30" viewBox="0 0 30 30" fill="none" xmlns="http://www.w3.org/2000/svg">
<g clip-path="url(#clip0_225_15096)">
<path d="M16.0072 14.7859C15.6893 14.9239 15.3465 14.9951 15 14.9951C14.6535 14.9951 14.3107 14.9239 13.9929 14.7859L1.77858 9.12875C1.58024 9.02871 1.41356 8.87558 1.29711 8.68641C1.18065 8.49724 1.11899 8.27946 1.11899 8.05732C1.11899 7.83518 1.18065 7.6174 1.29711 7.42823C1.41356 7.23906 1.58024 7.08593 1.77858 6.98589L13.9929 1.28589C14.3107 1.14788 14.6535 1.07666 15 1.07666C15.3465 1.07666 15.6893 1.14788 16.0072 1.28589L28.2214 6.94303C28.4198 7.04307 28.5865 7.1962 28.7029 7.38537C28.8194 7.57454 28.881 7.79232 28.881 8.01446C28.881 8.2366 28.8194 8.45439 28.7029 8.64355C28.5865 8.83272 28.4198 8.98585 28.2214 9.08589L16.0072 14.7859Z" stroke="white" stroke-width="1.5" stroke-linecap="round" stroke-linejoin="round"/>
<path d="M28.9286 15.75L15.8572 21.7714C15.578 21.8988 15.2747 21.9647 14.9679 21.9647C14.661 21.9647 14.3578 21.8988 14.0786 21.7714L1.07144 15.75" stroke="white" stroke-width="1.5" stroke-linecap="round" stroke-linejoin="round"/>
<path d="M28.9286 22.7144L15.8572 28.7358C15.578 28.8631 15.2747 28.929 14.9679 28.929C14.661 28.929 14.3578 28.8631 14.0786 28.7358L1.07144 22.7144" stroke="white" stroke-width="1.5" stroke-linecap="round" stroke-linejoin="round"/>
</g>
<defs>
<clipPath id="clip0_225_15096">
<rect width="30" height="30" fill="white"/>
</clipPath>
</defs>
</svg>
