<svg width="50" height="50" viewBox="0 0 50 50" fill="none" xmlns="http://www.w3.org/2000/svg">
<circle cx="25" cy="25" r="25" fill="#8F453F"/>
<path d="M39.9951 24.8107C39.9334 19.4126 36.9516 14.4498 32.2076 11.8468C31.8871 11.6574 31.4713 11.6715 31.1631 11.9171C31.0561 12.002 28.5433 14.0386 28.1584 17.5554C28.155 17.5859 28.1541 17.6168 28.151 17.6473C27.416 17.527 26.6727 17.4515 25.9266 17.4164V10.9349C25.9266 10.9312 25.9275 10.9278 25.9275 10.9242C25.9275 10.4137 25.5139 10 25.0034 10C22.4902 10 20.0079 10.633 17.8269 11.8291C17.8254 11.83 17.8238 11.8306 17.8226 11.8313C17.822 11.8316 17.8217 11.8319 17.8211 11.8322C13.0637 14.426 10.0703 19.3989 10.0043 24.8141C10.0006 24.8779 10 24.9406 10 25.0002C10 31.7065 14.5042 37.643 20.9553 39.4437C20.9987 39.4571 21.0445 39.4699 21.1053 39.4861C21.1093 39.4874 21.1136 39.4867 21.1176 39.4877C21.1448 39.4953 21.1729 39.506 21.1997 39.513C21.2795 39.5344 21.3595 39.5445 21.4383 39.5445C21.8468 39.5445 22.2208 39.2717 22.3307 38.858C22.4621 38.3649 22.1691 37.8583 21.6757 37.727C20.2887 37.3573 17.95 35.6544 17.094 33.0254C16.3174 30.6412 16.9702 28.0675 18.9817 25.5837C19.034 25.5192 19.0783 25.4548 19.129 25.3903C19.2879 25.189 19.4446 24.9876 19.5897 24.786C19.6664 24.6797 19.7345 24.5734 19.8075 24.467C19.9193 24.3036 20.0315 24.1401 20.1344 23.9767C20.2071 23.8612 20.2728 23.746 20.3409 23.6305C20.432 23.4762 20.5221 23.322 20.6055 23.1674C20.6697 23.0479 20.7293 22.9285 20.7888 22.8093C20.864 22.6587 20.9364 22.5081 21.0036 22.3578C21.0577 22.2368 21.109 22.1161 21.1582 21.9954C21.2193 21.8457 21.2755 21.696 21.329 21.5463C21.3717 21.4262 21.4142 21.3062 21.4521 21.1861C21.5004 21.0337 21.5416 20.8815 21.5819 20.7294C21.6125 20.6133 21.6452 20.4972 21.6711 20.3811C21.7078 20.2179 21.7356 20.0551 21.7628 19.8926C21.7802 19.7887 21.8019 19.6848 21.8156 19.5812C21.8178 19.5654 21.8218 19.5495 21.8239 19.5333C21.8752 19.5238 21.9262 19.5122 21.9776 19.5033C22.189 19.4667 22.4022 19.4367 22.6158 19.4077C22.7493 19.3894 22.8822 19.3677 23.016 19.3527C23.3588 19.3142 23.7037 19.2846 24.0505 19.266C24.0599 19.2653 24.0691 19.2656 24.0783 19.2653V38.8308C24.0783 38.8345 24.0792 38.8378 24.0795 38.8415V39.0758C24.0795 39.5863 24.4932 40 25.0037 40C25.6159 40 26.2398 39.9615 26.8636 39.8851C26.8658 39.8848 26.8679 39.8845 26.87 39.8842C27.1175 39.8738 27.3799 39.8359 27.6573 39.766C27.6579 39.7657 27.6589 39.7657 27.6595 39.7657C34.8118 38.4865 40 32.2824 40 25.0002C39.9991 24.9412 39.9988 24.8749 39.9951 24.8107ZM31.8706 13.7936C34.9749 15.6991 37.1306 18.79 37.8666 22.2957C35.6037 20.2848 32.8871 18.8107 29.9734 18.0369C30.011 17.4772 30.1173 16.9251 30.3021 16.3828C30.7149 15.1711 31.4139 14.2827 31.8706 13.7936ZM32.3289 33.3728C31.1279 35.8905 28.6924 37.5577 27.2978 37.9521C27.2822 37.9549 27.2666 37.9579 27.251 37.9619C27.0436 37.9949 26.8337 38.0248 26.632 38.0508C26.3977 38.0795 26.1622 38.1021 25.9275 38.1186V19.265C26.6828 19.3044 27.434 19.3967 28.1761 19.5327C28.4272 21.5283 29.3789 23.5554 31.0201 25.5825C33.118 28.1741 33.5583 30.7948 32.3289 33.3728ZM24.0777 17.4158C23.3255 17.4509 22.5791 17.5267 21.845 17.647C21.6327 15.4825 20.6193 13.8703 19.8219 12.9171C21.1661 12.3399 22.6069 11.9871 24.0774 11.8835V17.4158H24.0777ZM18.1342 13.7917C18.778 14.4733 19.8922 15.9435 20.0275 18.0372C17.1086 18.8138 14.3923 20.2882 12.1337 22.2982C12.8715 18.7878 15.0284 15.6951 18.1342 13.7917ZM15.3354 33.5976C15.3914 33.7696 15.4546 33.9377 15.5203 34.1039C13.2708 31.756 11.9042 28.5967 11.8523 25.199C13.9863 22.7665 16.7817 20.9579 19.8579 20.0096C19.5283 21.4461 18.7566 22.9236 17.5434 24.4197C17.4294 24.5611 17.3155 24.7066 17.2095 24.848C17.1975 24.8642 17.1899 24.8819 17.1789 24.8984C14.5038 28.4806 14.681 31.5886 15.3354 33.5976ZM33.5259 35.0268C33.6958 34.7473 33.8568 34.4629 33.997 34.169C35.0715 31.9164 35.6764 28.3966 32.4563 24.4194C31.2352 22.911 30.4641 21.4369 30.1372 20.0074C33.2076 20.9521 36.0042 22.7589 38.1462 25.1914C38.0906 29.0986 36.3342 32.6374 33.5259 35.0268Z" fill="white"/>
</svg>
